<svg aria-hidden="true" style="position: absolute; width: 0; height: 0; overflow: hidden;" version="1.1"
    xmlns="http://www.w3.org/2000/svg" xmlns:xlink="http://www.w3.org/1999/xlink">
    <defs>
    <symbol id="icon-arrow-narrow-right" viewBox="0 0 32 32">
            <path fill="none" stroke="#eac645" style="stroke: #eac645" stroke-linejoin="round"
                stroke-linecap="round" stroke-miterlimit="4" stroke-width="3.2"
                d="M5.333 16h21.334M26.667 16l-8-8M26.667 16l-8 8"></path>
        </symbol>
        <symbol id="icon-caret-down" viewBox="0 0 28 32">
            <path fill="#fff" style="fill: var(--color2, #fff)"
                d="M5.898 12h16.512l-7.422 8.39c-0.203 0.237-0.501 0.387-0.834 0.391h-0.001c-0.334-0.004-0.632-0.155-0.833-0.39l-0.001-0.002-7.422-8.39z">
            </path>
        </symbol>
       <symbol id="logo" viewBox="0 0 32 32">
<path fill="#f6f6f6" d="M0 0l16.343 16.171 15.657 15.829v-32h-32z"></path>
<path fill="#f6f6f6" d="M4.457 4.229l11.943 11.829 11.257 11.486h-23.2v-23.314z"></path>
<path fill="#4f2ee8" d="M27.733 27.618l-11.943-11.829-11.257-11.486h23.2v23.314z"></path>
<path fill="#4f2ee8" d="M9.257 9.029l13.6 13.6h-13.6v-13.6z"></path>
<path fill="#f6f6f6" d="M9.257 9.029l13.6 13.6v-13.6h-13.6z"></path>
</symbol>
        <symbol id="icon-switcher-dark" viewBox="0 0 52 32">
            <path
                d="M0 14.222c0-6.546 5.306-11.852 11.852-11.852h23.704c6.546 0 11.852 5.306 11.852 11.852s-5.306 11.852-11.852 11.852h-23.704c-6.546 0-11.852-5.306-11.852-11.852z">
            </path>
            <path
                d="M35.556 24.889c5.891 0 10.667-4.776 10.667-10.667s-4.776-10.667-10.667-10.667v0c-5.891 0-10.667 4.776-10.667 10.667s4.776 10.667 10.667 10.667v0z">
            </path>
        </symbol>
        <symbol id="icon-uil-cart" viewBox="0 0 32 32">
            <path
                d="M25.333 9.333h-4v-1.333c0-2.945-2.388-5.333-5.333-5.333s-5.333 2.388-5.333 5.333v0 1.333h-4c-0 0-0.001 0-0.002 0-0.736 0-1.333 0.597-1.333 1.333 0 0.001 0 0.001 0 0.002v-0 14.666c0 2.209 1.791 4 4 4v0h13.334c2.209 0 4-1.791 4-4v0-14.666c0-0 0-0.001 0-0.002 0-0.736-0.597-1.333-1.333-1.333-0.001 0-0.001 0-0.002 0h0zM13.333 8c0-1.473 1.194-2.667 2.667-2.667s2.667 1.194 2.667 2.667v1.333h-5.334v-1.333zM24 25.333c0 0 0 0.001 0 0.002 0 0.736-0.597 1.333-1.333 1.333h-13.334c-0.736 0-1.333-0.597-1.333-1.333 0-0.001 0-0.001 0-0.002v0-13.333h2.667v1.333c0 0.736 0.597 1.333 1.333 1.333s1.333-0.597 1.333-1.333v0-1.333h5.334v1.333c0.036 0.708 0.619 1.269 1.333 1.269s1.297-0.561 1.333-1.266l0-0.003v-1.333h2.667v13.333z">
            </path>
        </symbol>
        <symbol id="icon-user" viewBox="0 0 32 32">
            <path fill="#4f2ee8" style="fill: var(--color4, #4f2ee8)"
                d="M5.334 29.334c0-5.891 4.775-10.666 10.666-10.666s10.666 4.775 10.666 10.666v0h-21.332zM16 17.334c-0.001 0-0.001 0-0.002 0-4.417 0-7.998-3.581-7.998-7.998 0-0.001 0-0.001 0-0.002v0c0-0.001 0-0.001 0-0.002 0-4.417 3.581-7.998 7.998-7.998 0.001 0 0.001 0 0.002 0h-0c0 0 0.001 0 0.002 0 4.417 0 7.998 3.581 7.998 7.998 0 0.001 0 0.001 0 0.002v-0c0 0.001 0 0.001 0 0.002 0 4.417-3.581 7.998-7.998 7.998-0.001 0-0.001 0-0.002 0h0z">
            </path>
        </symbol>
        <symbol id="x-close" viewBox="0 0 32 32">
<path stroke-linejoin="round" stroke-linecap="round" stroke-miterlimit="4" stroke-width="5.3333" d="M28.444 3.556l-24.889 24.889M3.556 3.556l24.889 24.889"></path>
</symbol>
        <symbol id="icon-lock" viewBox="0 0 24 24">
            <path stroke-linejoin="round" stroke-linecap="round" stroke-miterlimit="4" stroke-width="1.7143"
                d="M17 11v-3c0-2.761-2.239-5-5-5s-5 2.239-5 5v3M7.8 21h8.4c1.68 0 2.52 0 3.162-0.327 0.564-0.288 1.023-0.747 1.311-1.311 0.327-0.642 0.327-1.482 0.327-3.162v-0.4c0-1.68 0-2.52-0.327-3.162-0.288-0.565-0.747-1.023-1.311-1.311-0.642-0.327-1.482-0.327-3.162-0.327h-8.4c-1.68 0-2.52 0-3.162 0.327-0.564 0.288-1.023 0.747-1.311 1.311-0.327 0.642-0.327 1.482-0.327 3.162v0.4c0 1.68 0 2.52 0.327 3.162 0.288 0.564 0.747 1.023 1.311 1.311 0.642 0.327 1.482 0.327 3.162 0.327z">
            </path>
        </symbol>
        <symbol id="icon-mail" viewBox="0 0 24 24">
            <path stroke-linejoin="round" stroke-linecap="round" stroke-miterlimit="4" stroke-width="1.7143"
                d="M21.5 18l-6.643-6M9.143 12l-6.643 6M2 7l8.165 5.715c0.661 0.463 0.992 0.694 1.351 0.784 0.318 0.079 0.65 0.079 0.967 0 0.36-0.090 0.69-0.321 1.351-0.784l8.165-5.715M6.8 20h10.4c1.68 0 2.52 0 3.162-0.327 0.565-0.288 1.023-0.747 1.311-1.311 0.327-0.642 0.327-1.482 0.327-3.162v-6.4c0-1.68 0-2.52-0.327-3.162-0.288-0.564-0.747-1.023-1.311-1.311-0.642-0.327-1.482-0.327-3.162-0.327h-10.4c-1.68 0-2.52 0-3.162 0.327-0.564 0.288-1.023 0.747-1.311 1.311-0.327 0.642-0.327 1.482-0.327 3.162v6.4c0 1.68 0 2.52 0.327 3.162 0.288 0.565 0.747 1.023 1.311 1.311 0.642 0.327 1.482 0.327 3.162 0.327z">
            </path>
        </symbol>
<symbol id="reload" viewBox="0 0 32 32">
<path d="M32 12h-12l4.485-4.485c-2.267-2.266-5.28-3.515-8.485-3.515s-6.219 1.248-8.485 3.515c-2.266 2.267-3.515 5.28-3.515 8.485s1.248 6.219 3.515 8.485c2.267 2.266 5.28 3.515 8.485 3.515s6.219-1.248 8.485-3.515c0.189-0.189 0.371-0.384 0.546-0.583l3.010 2.634c-2.933 3.349-7.239 5.464-12.041 5.464-8.837 0-16-7.163-16-16s7.163-16 16-16c4.418 0 8.418 1.791 11.313 4.687l4.687-4.687v12z"></path>
</symbol>

<symbol id="bookshelf" viewBox="0 0 176 32">
<path d="M22.176 8.533c0-4.731-3.497-7.406-9.545-7.406h-12.631v29.417h13.33c6.089 0 9.998-2.921 9.998-8.599 0-4.402-2.633-6.665-5.719-7.2v-0.082c2.427-0.823 4.567-2.51 4.567-6.13zM4.896 13.305v-8.023h7.858c2.921 0 4.526 1.44 4.526 4.032s-1.317 3.991-4.814 3.991h-7.57zM4.896 16.967h8.599c3.086 0 4.937 1.687 4.937 4.69 0 2.757-1.275 4.731-5.472 4.731h-8.064v-9.422z"></path>
<path d="M35.89 31.161c-6.583 0-10.574-4.567-10.574-11.109s3.991-11.109 10.574-11.109c6.583 0 10.574 4.567 10.574 11.109s-3.991 11.109-10.574 11.109zM35.89 27.623c4.114 0 6.254-3.25 6.254-7.57 0-4.361-2.139-7.57-6.254-7.57s-6.254 3.209-6.254 7.57c0 4.32 2.139 7.57 6.254 7.57z"></path>
<path d="M58.912 31.161c-6.583 0-10.574-4.567-10.574-11.109s3.991-11.109 10.574-11.109c6.583 0 10.574 4.567 10.574 11.109s-3.991 11.109-10.574 11.109zM58.912 27.623c4.114 0 6.254-3.25 6.254-7.57 0-4.361-2.139-7.57-6.254-7.57s-6.254 3.209-6.254 7.57c0 4.32 2.139 7.57 6.254 7.57z"></path>
<path d="M72.472 1.127v29.417h4.32v-7.611l2.921-2.757 6.624 10.368h5.184l-8.846-13.207 7.982-7.817h-5.307l-8.558 8.434v-16.827h-4.32z"></path>
<path d="M101.935 17.831c-3.045-0.699-5.39-0.864-5.39-3.003 0-1.481 1.399-2.469 3.991-2.469 3.374 0 4.197 1.687 4.485 3.333h4.197c-0.288-3.662-3.003-6.747-8.722-6.747-5.266 0-8.311 2.757-8.311 6.213 0 4.773 4.526 5.431 7.858 6.213 3.086 0.741 5.595 0.946 5.595 3.579 0 1.317-1.275 2.798-4.279 2.798-4.443 0-5.431-1.934-5.637-4.197h-4.197c0.206 4.443 3.127 7.611 9.915 7.611 5.102 0 8.558-2.51 8.558-6.542 0-5.019-4.197-5.883-8.064-6.789z"></path>
<path d="M124.123 8.944c-3.538 0-5.719 1.646-6.83 3.291h-0.082v-11.109h-4.32v29.417h4.32v-12.795c0-3.127 2.263-5.143 5.431-5.143 3.003 0 4.197 1.81 4.197 4.649v13.289h4.361v-14.523c0-4.814-3.086-7.077-7.077-7.077z"></path>
<path d="M144.448 27.623c-3.826 0-6.089-2.921-6.089-6.459h16.128c0-7.488-3.333-12.219-10.121-12.219-6.336 0-10.327 4.279-10.327 11.109 0 6.583 3.991 11.109 10.533 11.109 5.39 0 8.517-3.045 9.586-7.035h-4.32c-0.37 1.275-1.81 3.497-5.39 3.497zM144.366 12.359c3.497 0 5.801 2.345 5.801 5.595h-11.808c0-3.25 2.51-5.595 6.007-5.595z"></path>
<path d="M157.531 1.127v29.417h4.361v-29.417h-4.361z"></path>
<path d="M176.003 4.665v-3.538c-0.864-0.165-1.81-0.288-2.88-0.288-3.456 0-5.349 1.563-5.349 6.007v2.674h-3.003v3.538h3.003v17.486h4.361v-17.486h3.867v-3.538h-3.867v-2.304c0-2.386 1.070-2.674 3.867-2.551z"></path>
</symbol>
<symbol id="burger-menu" viewBox="0 0 32 32">
<path fill="none" d="M0 0h32v32h-32v-32z"></path>
<path d="M2.857 13.333c0-0.631 0.512-1.143 1.143-1.143h18.667c0.631 0 1.143 0.512 1.143 1.143s-0.512 1.143-1.143 1.143h-18.667c-0.631 0-1.143-0.512-1.143-1.143z"></path>
<path d="M2.857 8c0-0.631 0.512-1.143 1.143-1.143h24c0.631 0 1.143 0.512 1.143 1.143s-0.512 1.143-1.143 1.143h-24c-0.631 0-1.143-0.512-1.143-1.143z"></path>
<path d="M2.857 18.667c0-0.631 0.512-1.143 1.143-1.143h24c0.631 0 1.143 0.512 1.143 1.143s-0.512 1.143-1.143 1.143h-24c-0.631 0-1.143-0.512-1.143-1.143z"></path>
<path d="M2.857 24c0-0.631 0.512-1.143 1.143-1.143h18.667c0.631 0 1.143 0.512 1.143 1.143s-0.512 1.143-1.143 1.143h-18.667c-0.631 0-1.143-0.512-1.143-1.143z"></path>
</symbol><symbol id="dump" viewBox="0 0 32 32">
<path d="M10 2.8c0 0.884 0.716 1.6 1.6 1.6h8.8c0.884 0 1.6-0.716 1.6-1.6s-0.716-1.6-1.6-1.6h-8.8c-0.884 0-1.6 0.716-1.6 1.6zM5.721 5.6c0.009-0 0.019-0 0.028 0h20.502c0.009-0 0.019-0 0.028 0h2.921c0.884 0 1.6 0.716 1.6 1.6s-0.716 1.6-1.6 1.6h-1.436l-0.933 13.997c-0.074 1.104-0.135 2.026-0.245 2.777-0.115 0.785-0.3 1.513-0.688 2.196-0.6 1.053-1.506 1.9-2.597 2.429-0.706 0.342-1.445 0.478-2.236 0.541-0.757 0.060-1.681 0.060-2.787 0.060h-4.553c-1.107 0-2.030 0-2.787-0.060-0.791-0.063-1.53-0.198-2.236-0.541-1.091-0.529-1.997-1.376-2.597-2.429-0.389-0.682-0.573-1.41-0.688-2.196-0.11-0.752-0.172-1.673-0.245-2.777l-0.933-13.997h-1.436c-0.884 0-1.6-0.716-1.6-1.6s0.716-1.6 1.6-1.6h2.921zM24.556 8.8h-17.113l0.915 13.722c0.079 1.183 0.133 1.977 0.223 2.588 0.087 0.592 0.191 0.881 0.303 1.076 0.28 0.492 0.703 0.887 1.212 1.134 0.203 0.098 0.498 0.183 1.094 0.23 0.616 0.049 1.411 0.050 2.597 0.050h4.427c1.185 0 1.981-0.001 2.597-0.050 0.596-0.047 0.892-0.132 1.094-0.23 0.509-0.247 0.932-0.642 1.212-1.134 0.111-0.196 0.216-0.485 0.303-1.076 0.090-0.611 0.144-1.405 0.223-2.588l0.915-13.722zM13.067 12.2c-0.884 0-1.6 0.716-1.6 1.6v7.333c0 0.884 0.716 1.6 1.6 1.6s1.6-0.716 1.6-1.6v-7.333c0-0.884-0.716-1.6-1.6-1.6zM18.933 12.2c-0.884 0-1.6 0.716-1.6 1.6v7.333c0 0.884 0.716 1.6 1.6 1.6s1.6-0.716 1.6-1.6v-7.333c0-0.884-0.716-1.6-1.6-1.6z"></path>
</symbol>
<symbol id="supportbtn" viewBox="0 0 56 32">
<path d="M25.395 21.134c0.341 0.344 0.746 0.616 1.193 0.803s0.926 0.282 1.41 0.282 0.963-0.096 1.41-0.282c0.447-0.186 0.852-0.459 1.193-0.803l16.794-16.83c0.341-0.344 0.746-0.616 1.193-0.803s0.926-0.282 1.41-0.282c0.484 0 0.963 0.096 1.41 0.282s0.852 0.459 1.193 0.803c0.683 0.687 1.066 1.616 1.066 2.585s-0.383 1.898-1.066 2.585l-16.83 16.83c-2.063 2.060-4.858 3.217-7.773 3.217s-5.711-1.157-7.773-3.217l-16.83-16.83c-0.677-0.683-1.059-1.605-1.063-2.567-0.003-0.483 0.090-0.961 0.272-1.408s0.451-0.853 0.791-1.196c0.341-0.344 0.746-0.616 1.193-0.803s0.926-0.282 1.41-0.282 0.963 0.096 1.41 0.282c0.447 0.186 0.852 0.459 1.193 0.803l16.793 16.83z"></path>
</symbol>
    </defs>
</svg>