<svg aria-hidden="true" style="width:0;height:0;position:absolute;overflow:hidden" xmlns="http://www.w3.org/2000/svg"><defs><symbol id="logo" viewBox="0 0 32 32"><path fill="#f6f6f6" d="m0 0 16.343 16.171L32 32V0H0z"/><path fill="#f6f6f6" d="M4.457 4.229 16.4 16.058l11.257 11.486h-23.2V4.23z"/><path fill="#4f2ee8" d="M27.733 27.618 15.79 15.789 4.533 4.303h23.2v23.314z"/><path fill="#4f2ee8" d="m9.257 9.029 13.6 13.6h-13.6v-13.6z"/><path fill="#f6f6f6" d="m9.257 9.029 13.6 13.6v-13.6h-13.6z"/></symbol><symbol id="bookshelf" viewBox="0 0 176 32"><path d="M22.176 8.533c0-4.731-3.497-7.406-9.545-7.406H0v29.417h13.33c6.089 0 9.998-2.921 9.998-8.599 0-4.402-2.633-6.665-5.719-7.2v-.082c2.427-.823 4.567-2.51 4.567-6.13zm-17.28 4.772V5.282h7.858c2.921 0 4.526 1.44 4.526 4.032s-1.317 3.991-4.814 3.991h-7.57zm0 3.662h8.599c3.086 0 4.937 1.687 4.937 4.69 0 2.757-1.275 4.731-5.472 4.731H4.896v-9.422zM35.89 31.161c-6.583 0-10.574-4.567-10.574-11.109S29.307 8.943 35.89 8.943s10.574 4.567 10.574 11.109-3.991 11.109-10.574 11.109zm0-3.538c4.114 0 6.254-3.25 6.254-7.57 0-4.361-2.139-7.57-6.254-7.57s-6.254 3.209-6.254 7.57c0 4.32 2.139 7.57 6.254 7.57zM58.912 31.161c-6.583 0-10.574-4.567-10.574-11.109S52.329 8.943 58.912 8.943s10.574 4.567 10.574 11.109-3.991 11.109-10.574 11.109zm0-3.538c4.114 0 6.254-3.25 6.254-7.57 0-4.361-2.139-7.57-6.254-7.57s-6.254 3.209-6.254 7.57c0 4.32 2.139 7.57 6.254 7.57zM72.472 1.127v29.417h4.32v-7.611l2.921-2.757 6.624 10.368h5.184l-8.846-13.207 7.982-7.817H85.35l-8.558 8.434V1.127h-4.32zM101.935 17.831c-3.045-.699-5.39-.864-5.39-3.003 0-1.481 1.399-2.469 3.991-2.469 3.374 0 4.197 1.687 4.485 3.333h4.197c-.288-3.662-3.003-6.747-8.722-6.747-5.266 0-8.311 2.757-8.311 6.213 0 4.773 4.526 5.431 7.858 6.213 3.086.741 5.595.946 5.595 3.579 0 1.317-1.275 2.798-4.279 2.798-4.443 0-5.431-1.934-5.637-4.197h-4.197c.206 4.443 3.127 7.611 9.915 7.611 5.102 0 8.558-2.51 8.558-6.542 0-5.019-4.197-5.883-8.064-6.789zM124.123 8.944c-3.538 0-5.719 1.646-6.83 3.291h-.082V1.126h-4.32v29.417h4.32V17.748c0-3.127 2.263-5.143 5.431-5.143 3.003 0 4.197 1.81 4.197 4.649v13.289h4.361V16.02c0-4.814-3.086-7.077-7.077-7.077zM144.448 27.623c-3.826 0-6.089-2.921-6.089-6.459h16.128c0-7.488-3.333-12.219-10.121-12.219-6.336 0-10.327 4.279-10.327 11.109 0 6.583 3.991 11.109 10.533 11.109 5.39 0 8.517-3.045 9.586-7.035h-4.32c-.37 1.275-1.81 3.497-5.39 3.497zm-.082-15.264c3.497 0 5.801 2.345 5.801 5.595h-11.808c0-3.25 2.51-5.595 6.007-5.595zM157.531 1.127v29.417h4.361V1.127h-4.361zM176.003 4.665V1.127a15.12 15.12 0 0 0-2.88-.288c-3.456 0-5.349 1.563-5.349 6.007V9.52h-3.003v3.538h3.003v17.486h4.361V13.058h3.867V9.52h-3.867V7.216c0-2.386 1.07-2.674 3.867-2.551z"/></symbol><symbol id="burger-menu" viewBox="0 0 32 32"><path fill="#fff" d="M0 0h32v32H0V0z"/><path d="M2.857 13.333c0-.631.512-1.143 1.143-1.143h18.667a1.143 1.143 0 0 1 0 2.286H4a1.143 1.143 0 0 1-1.143-1.143zM2.857 8c0-.631.512-1.143 1.143-1.143h24a1.143 1.143 0 0 1 0 2.286H4A1.143 1.143 0 0 1 2.857 8zM2.857 18.667c0-.631.512-1.143 1.143-1.143h24a1.143 1.143 0 0 1 0 2.286H4a1.143 1.143 0 0 1-1.143-1.143zM2.857 24c0-.631.512-1.143 1.143-1.143h18.667a1.143 1.143 0 0 1 0 2.286H4A1.143 1.143 0 0 1 2.857 24z"/></symbol><symbol id="dump" viewBox="0 0 32 32"><path d="M10 2.8a1.6 1.6 0 0 0 1.6 1.6h8.8a1.6 1.6 0 1 0 0-3.2h-8.8A1.6 1.6 0 0 0 10 2.8zM5.721 5.6H29.2a1.6 1.6 0 1 1 0 3.2h-1.436l-.933 13.997c-.074 1.104-.135 2.026-.245 2.777-.115.785-.3 1.513-.688 2.196a6.004 6.004 0 0 1-2.597 2.429c-.706.342-1.445.478-2.236.541-.757.06-1.681.06-2.787.06h-4.553c-1.107 0-2.03 0-2.787-.06-.791-.063-1.53-.198-2.236-.541a6.004 6.004 0 0 1-2.597-2.429c-.389-.682-.573-1.41-.688-2.196-.11-.752-.172-1.673-.245-2.777L4.239 8.8H2.803a1.6 1.6 0 1 1 0-3.2h2.921zm18.835 3.2H7.443l.915 13.722c.079 1.183.133 1.977.223 2.588.087.592.191.881.303 1.076.28.492.703.887 1.212 1.134.203.098.498.183 1.094.23.616.049 1.411.05 2.597.05h4.427c1.185 0 1.981-.001 2.597-.05.596-.047.892-.132 1.094-.23a2.801 2.801 0 0 0 1.212-1.134c.111-.196.216-.485.303-1.076.09-.611.144-1.405.223-2.588L24.558 8.8zm-11.489 3.4a1.6 1.6 0 0 0-1.6 1.6v7.333a1.6 1.6 0 1 0 3.2 0V13.8a1.6 1.6 0 0 0-1.6-1.6zm5.866 0a1.6 1.6 0 0 0-1.6 1.6v7.333a1.6 1.6 0 1 0 3.2 0V13.8a1.6 1.6 0 0 0-1.6-1.6z"/></symbol></defs></svg>