<svg aria-hidden="true" style="width:0;height:0;position:absolute;overflow:hidden" xmlns="http://www.w3.org/2000/svg"><defs><symbol id="icon-arrow-narrow-right" viewBox="0 0 32 32"><path fill="none" stroke="#eac645" style="stroke:#eac645" stroke-linejoin="round" stroke-linecap="round" stroke-width="3.2" d="M5.333 16h21.334m0 0-8-8m8 8-8 8"/></symbol><symbol id="icon-caret-down" viewBox="0 0 28 32"><path fill="#fff" style="fill:var(--color2,#fff)" d="M5.898 12H22.41l-7.422 8.39a1.112 1.112 0 0 1-.834.391h-.001a1.111 1.111 0 0 1-.833-.39l-.001-.002-7.422-8.39z"/></symbol><symbol id="logo" viewBox="0 0 32 32"><path fill="#f6f6f6" d="m0 0 16.343 16.171L32 32V0H0z"/><path fill="#f6f6f6" d="M4.457 4.229 16.4 16.058l11.257 11.486h-23.2V4.23z"/><path fill="#4f2ee8" d="M27.733 27.618 15.79 15.789 4.533 4.303h23.2v23.314z"/><path fill="#4f2ee8" d="m9.257 9.029 13.6 13.6h-13.6v-13.6z"/><path fill="#f6f6f6" d="m9.257 9.029 13.6 13.6v-13.6h-13.6z"/></symbol><symbol id="icon-switcher-dark" viewBox="0 0 52 32"><path d="M0 14.222C0 7.676 5.306 2.37 11.852 2.37h23.704c6.546 0 11.852 5.306 11.852 11.852s-5.306 11.852-11.852 11.852H11.852C5.306 26.074 0 20.768 0 14.222z"/><path d="M35.556 24.889c5.891 0 10.667-4.776 10.667-10.667S41.447 3.555 35.556 3.555 24.889 8.331 24.889 14.222s4.776 10.667 10.667 10.667z"/></symbol><symbol id="icon-uil-cart" viewBox="0 0 32 32"><path d="M25.333 9.333h-4V8a5.333 5.333 0 0 0-10.666 0v1.333H6.665c-.736 0-1.333.597-1.333 1.333V25.334a4 4 0 0 0 4 4h13.334a4 4 0 0 0 4-4V10.666c0-.736-.597-1.333-1.333-1.333h-.002zM13.333 8a2.667 2.667 0 1 1 5.334 0v1.333h-5.334V8zM24 25.333v.002c0 .736-.597 1.333-1.333 1.333H9.333A1.333 1.333 0 0 1 8 25.335V12h2.667v1.333a1.333 1.333 0 0 0 2.666 0V12h5.334v1.333a1.336 1.336 0 0 0 2.666.003V12H24v13.333z"/></symbol><symbol id="icon-user" viewBox="0 0 32 32"><path fill="#4f2ee8" style="fill:var(--color4,#4f2ee8)" d="M5.334 29.334c0-5.891 4.775-10.666 10.666-10.666s10.666 4.775 10.666 10.666H5.334zm10.666-12h-.002A7.998 7.998 0 0 1 8 9.336v-.004a7.998 7.998 0 0 1 7.998-7.998h.004A7.998 7.998 0 0 1 24 9.332v.004a7.998 7.998 0 0 1-7.998 7.998H16z"/></symbol><symbol id="x-close" viewBox="0 0 32 32"><path stroke-linejoin="round" stroke-linecap="round" stroke-width="5.333" d="M28.444 3.556 3.555 28.445m.001-24.889 24.889 24.889"/></symbol><symbol id="icon-lock" viewBox="0 0 24 24"><path stroke-linejoin="round" stroke-linecap="round" stroke-width="1.714" d="M17 11V8A5 5 0 0 0 7 8v3m.8 10h8.4c1.68 0 2.52 0 3.162-.327a3.009 3.009 0 0 0 1.311-1.311C21 18.72 21 17.88 21 16.2v-.4c0-1.68 0-2.52-.327-3.162a3.004 3.004 0 0 0-1.311-1.311C18.72 11 17.88 11 16.2 11H7.8c-1.68 0-2.52 0-3.162.327a3.009 3.009 0 0 0-1.311 1.311C3 13.28 3 14.12 3 15.8v.4c0 1.68 0 2.52.327 3.162a3.009 3.009 0 0 0 1.311 1.311C5.28 21 6.12 21 7.8 21z"/></symbol><symbol id="icon-mail" viewBox="0 0 24 24"><path stroke-linejoin="round" stroke-linecap="round" stroke-width="1.714" d="m21.5 18-6.643-6m-5.714 0L2.5 18M2 7l8.165 5.715c.661.463.992.694 1.351.784.318.079.65.079.967 0 .36-.09.69-.321 1.351-.784L21.999 7M6.8 20h10.4c1.68 0 2.52 0 3.162-.327a3.004 3.004 0 0 0 1.311-1.311C22 17.72 22 16.88 22 15.2V8.8c0-1.68 0-2.52-.327-3.162a3.009 3.009 0 0 0-1.311-1.311C19.72 4 18.88 4 17.2 4H6.8c-1.68 0-2.52 0-3.162.327a3.009 3.009 0 0 0-1.311 1.311C2 6.28 2 7.12 2 8.8v6.4c0 1.68 0 2.52.327 3.162a3.004 3.004 0 0 0 1.311 1.311C4.28 20 5.12 20 6.8 20z"/></symbol><symbol id="reload" viewBox="0 0 32 32"><path d="M32 12H20l4.485-4.485C22.218 5.249 19.205 4 16 4S9.781 5.248 7.515 7.515C5.249 9.782 4 12.795 4 16s1.248 6.219 3.515 8.485C9.782 26.751 12.795 28 16 28s6.219-1.248 8.485-3.515c.189-.189.371-.384.546-.583l3.01 2.634A15.96 15.96 0 0 1 16 32C7.163 32 0 24.837 0 16S7.163 0 16 0c4.418 0 8.418 1.791 11.313 4.687L32 0v12z"/></symbol><symbol id="bookshelf" viewBox="0 0 176 32"><path d="M22.176 8.533c0-4.731-3.497-7.406-9.545-7.406H0v29.417h13.33c6.089 0 9.998-2.921 9.998-8.599 0-4.402-2.633-6.665-5.719-7.2v-.082c2.427-.823 4.567-2.51 4.567-6.13zm-17.28 4.772V5.282h7.858c2.921 0 4.526 1.44 4.526 4.032s-1.317 3.991-4.814 3.991h-7.57zm0 3.662h8.599c3.086 0 4.937 1.687 4.937 4.69 0 2.757-1.275 4.731-5.472 4.731H4.896v-9.422zM35.89 31.161c-6.583 0-10.574-4.567-10.574-11.109S29.307 8.943 35.89 8.943s10.574 4.567 10.574 11.109-3.991 11.109-10.574 11.109zm0-3.538c4.114 0 6.254-3.25 6.254-7.57 0-4.361-2.139-7.57-6.254-7.57s-6.254 3.209-6.254 7.57c0 4.32 2.139 7.57 6.254 7.57zM58.912 31.161c-6.583 0-10.574-4.567-10.574-11.109S52.329 8.943 58.912 8.943s10.574 4.567 10.574 11.109-3.991 11.109-10.574 11.109zm0-3.538c4.114 0 6.254-3.25 6.254-7.57 0-4.361-2.139-7.57-6.254-7.57s-6.254 3.209-6.254 7.57c0 4.32 2.139 7.57 6.254 7.57zM72.472 1.127v29.417h4.32v-7.611l2.921-2.757 6.624 10.368h5.184l-8.846-13.207 7.982-7.817H85.35l-8.558 8.434V1.127h-4.32zM101.935 17.831c-3.045-.699-5.39-.864-5.39-3.003 0-1.481 1.399-2.469 3.991-2.469 3.374 0 4.197 1.687 4.485 3.333h4.197c-.288-3.662-3.003-6.747-8.722-6.747-5.266 0-8.311 2.757-8.311 6.213 0 4.773 4.526 5.431 7.858 6.213 3.086.741 5.595.946 5.595 3.579 0 1.317-1.275 2.798-4.279 2.798-4.443 0-5.431-1.934-5.637-4.197h-4.197c.206 4.443 3.127 7.611 9.915 7.611 5.102 0 8.558-2.51 8.558-6.542 0-5.019-4.197-5.883-8.064-6.789zM124.123 8.944c-3.538 0-5.719 1.646-6.83 3.291h-.082V1.126h-4.32v29.417h4.32V17.748c0-3.127 2.263-5.143 5.431-5.143 3.003 0 4.197 1.81 4.197 4.649v13.289h4.361V16.02c0-4.814-3.086-7.077-7.077-7.077zM144.448 27.623c-3.826 0-6.089-2.921-6.089-6.459h16.128c0-7.488-3.333-12.219-10.121-12.219-6.336 0-10.327 4.279-10.327 11.109 0 6.583 3.991 11.109 10.533 11.109 5.39 0 8.517-3.045 9.586-7.035h-4.32c-.37 1.275-1.81 3.497-5.39 3.497zm-.082-15.264c3.497 0 5.801 2.345 5.801 5.595h-11.808c0-3.25 2.51-5.595 6.007-5.595zM157.531 1.127v29.417h4.361V1.127h-4.361zM176.003 4.665V1.127a15.12 15.12 0 0 0-2.88-.288c-3.456 0-5.349 1.563-5.349 6.007V9.52h-3.003v3.538h3.003v17.486h4.361V13.058h3.867V9.52h-3.867V7.216c0-2.386 1.07-2.674 3.867-2.551z"/></symbol><symbol id="burger-menu" viewBox="0 0 32 32"><path fill="none" d="M0 0h32v32H0V0z"/><path d="M2.857 13.333c0-.631.512-1.143 1.143-1.143h18.667a1.143 1.143 0 0 1 0 2.286H4a1.143 1.143 0 0 1-1.143-1.143zM2.857 8c0-.631.512-1.143 1.143-1.143h24a1.143 1.143 0 0 1 0 2.286H4A1.143 1.143 0 0 1 2.857 8zM2.857 18.667c0-.631.512-1.143 1.143-1.143h24a1.143 1.143 0 0 1 0 2.286H4a1.143 1.143 0 0 1-1.143-1.143zM2.857 24c0-.631.512-1.143 1.143-1.143h18.667a1.143 1.143 0 0 1 0 2.286H4A1.143 1.143 0 0 1 2.857 24z"/></symbol><symbol id="dump" viewBox="0 0 32 32"><path d="M10 2.8a1.6 1.6 0 0 0 1.6 1.6h8.8a1.6 1.6 0 1 0 0-3.2h-8.8A1.6 1.6 0 0 0 10 2.8zM5.721 5.6H29.2a1.6 1.6 0 1 1 0 3.2h-1.436l-.933 13.997c-.074 1.104-.135 2.026-.245 2.777-.115.785-.3 1.513-.688 2.196a6.004 6.004 0 0 1-2.597 2.429c-.706.342-1.445.478-2.236.541-.757.06-1.681.06-2.787.06h-4.553c-1.107 0-2.03 0-2.787-.06-.791-.063-1.53-.198-2.236-.541a6.004 6.004 0 0 1-2.597-2.429c-.389-.682-.573-1.41-.688-2.196-.11-.752-.172-1.673-.245-2.777L4.239 8.8H2.803a1.6 1.6 0 1 1 0-3.2h2.921zm18.835 3.2H7.443l.915 13.722c.079 1.183.133 1.977.223 2.588.087.592.191.881.303 1.076.28.492.703.887 1.212 1.134.203.098.498.183 1.094.23.616.049 1.411.05 2.597.05h4.427c1.185 0 1.981-.001 2.597-.05.596-.047.892-.132 1.094-.23a2.801 2.801 0 0 0 1.212-1.134c.111-.196.216-.485.303-1.076.09-.611.144-1.405.223-2.588L24.558 8.8zm-11.489 3.4a1.6 1.6 0 0 0-1.6 1.6v7.333a1.6 1.6 0 1 0 3.2 0V13.8a1.6 1.6 0 0 0-1.6-1.6zm5.866 0a1.6 1.6 0 0 0-1.6 1.6v7.333a1.6 1.6 0 1 0 3.2 0V13.8a1.6 1.6 0 0 0-1.6-1.6z"/></symbol><symbol id="supportbtn" viewBox="0 0 56 32"><path d="M25.395 21.134a3.675 3.675 0 0 0 2.603 1.085 3.67 3.67 0 0 0 2.603-1.085l16.794-16.83a3.675 3.675 0 0 1 2.603-1.085 3.67 3.67 0 0 1 2.603 6.255l-16.83 16.83a11 11 0 0 1-15.546 0L3.395 9.474a3.669 3.669 0 0 1-.791-3.975A3.659 3.659 0 0 1 4.588 3.5a3.651 3.651 0 0 1 2.82 0c.447.186.852.459 1.193.803l16.793 16.83z"/></symbol></defs></svg>