<svg aria-hidden="true" style="position: absolute; width: 0; height: 0; overflow: hidden;" version="1.1" xmlns="http://www.w3.org/2000/svg" xmlns:xlink="http://www.w3.org/1999/xlink">
<defs>
<symbol id="logo" viewBox="0 0 32 32">
<path fill="#f6f6f6" d="M0 0l16.343 16.171 15.657 15.829v-32h-32z"></path>
<path fill="#f6f6f6" d="M4.457 4.229l11.943 11.829 11.257 11.486h-23.2v-23.314z"></path>
<path fill="#4f2ee8" d="M27.733 27.618l-11.943-11.829-11.257-11.486h23.2v23.314z"></path>
<path fill="#4f2ee8" d="M9.257 9.029l13.6 13.6h-13.6v-13.6z"></path>
<path fill="#f6f6f6" d="M9.257 9.029l13.6 13.6v-13.6h-13.6z"></path>
</symbol>
<symbol id="bookshelf" viewBox="0 0 176 32">
<path d="M22.176 8.533c0-4.731-3.497-7.406-9.545-7.406h-12.631v29.417h13.33c6.089 0 9.998-2.921 9.998-8.599 0-4.402-2.633-6.665-5.719-7.2v-0.082c2.427-0.823 4.567-2.51 4.567-6.13zM4.896 13.305v-8.023h7.858c2.921 0 4.526 1.44 4.526 4.032s-1.317 3.991-4.814 3.991h-7.57zM4.896 16.967h8.599c3.086 0 4.937 1.687 4.937 4.69 0 2.757-1.275 4.731-5.472 4.731h-8.064v-9.422z"></path>
<path d="M35.89 31.161c-6.583 0-10.574-4.567-10.574-11.109s3.991-11.109 10.574-11.109c6.583 0 10.574 4.567 10.574 11.109s-3.991 11.109-10.574 11.109zM35.89 27.623c4.114 0 6.254-3.25 6.254-7.57 0-4.361-2.139-7.57-6.254-7.57s-6.254 3.209-6.254 7.57c0 4.32 2.139 7.57 6.254 7.57z"></path>
<path d="M58.912 31.161c-6.583 0-10.574-4.567-10.574-11.109s3.991-11.109 10.574-11.109c6.583 0 10.574 4.567 10.574 11.109s-3.991 11.109-10.574 11.109zM58.912 27.623c4.114 0 6.254-3.25 6.254-7.57 0-4.361-2.139-7.57-6.254-7.57s-6.254 3.209-6.254 7.57c0 4.32 2.139 7.57 6.254 7.57z"></path>
<path d="M72.472 1.127v29.417h4.32v-7.611l2.921-2.757 6.624 10.368h5.184l-8.846-13.207 7.982-7.817h-5.307l-8.558 8.434v-16.827h-4.32z"></path>
<path d="M101.935 17.831c-3.045-0.699-5.39-0.864-5.39-3.003 0-1.481 1.399-2.469 3.991-2.469 3.374 0 4.197 1.687 4.485 3.333h4.197c-0.288-3.662-3.003-6.747-8.722-6.747-5.266 0-8.311 2.757-8.311 6.213 0 4.773 4.526 5.431 7.858 6.213 3.086 0.741 5.595 0.946 5.595 3.579 0 1.317-1.275 2.798-4.279 2.798-4.443 0-5.431-1.934-5.637-4.197h-4.197c0.206 4.443 3.127 7.611 9.915 7.611 5.102 0 8.558-2.51 8.558-6.542 0-5.019-4.197-5.883-8.064-6.789z"></path>
<path d="M124.123 8.944c-3.538 0-5.719 1.646-6.83 3.291h-0.082v-11.109h-4.32v29.417h4.32v-12.795c0-3.127 2.263-5.143 5.431-5.143 3.003 0 4.197 1.81 4.197 4.649v13.289h4.361v-14.523c0-4.814-3.086-7.077-7.077-7.077z"></path>
<path d="M144.448 27.623c-3.826 0-6.089-2.921-6.089-6.459h16.128c0-7.488-3.333-12.219-10.121-12.219-6.336 0-10.327 4.279-10.327 11.109 0 6.583 3.991 11.109 10.533 11.109 5.39 0 8.517-3.045 9.586-7.035h-4.32c-0.37 1.275-1.81 3.497-5.39 3.497zM144.366 12.359c3.497 0 5.801 2.345 5.801 5.595h-11.808c0-3.25 2.51-5.595 6.007-5.595z"></path>
<path d="M157.531 1.127v29.417h4.361v-29.417h-4.361z"></path>
<path d="M176.003 4.665v-3.538c-0.864-0.165-1.81-0.288-2.88-0.288-3.456 0-5.349 1.563-5.349 6.007v2.674h-3.003v3.538h3.003v17.486h4.361v-17.486h3.867v-3.538h-3.867v-2.304c0-2.386 1.070-2.674 3.867-2.551z"></path>
</symbol>
<symbol id="burger-menu" viewBox="0 0 32 32">
<path fill="#fff" d="M0 0h32v32h-32v-32z"></path>
<path d="M2.857 13.333c0-0.631 0.512-1.143 1.143-1.143h18.667c0.631 0 1.143 0.512 1.143 1.143s-0.512 1.143-1.143 1.143h-18.667c-0.631 0-1.143-0.512-1.143-1.143z"></path>
<path d="M2.857 8c0-0.631 0.512-1.143 1.143-1.143h24c0.631 0 1.143 0.512 1.143 1.143s-0.512 1.143-1.143 1.143h-24c-0.631 0-1.143-0.512-1.143-1.143z"></path>
<path d="M2.857 18.667c0-0.631 0.512-1.143 1.143-1.143h24c0.631 0 1.143 0.512 1.143 1.143s-0.512 1.143-1.143 1.143h-24c-0.631 0-1.143-0.512-1.143-1.143z"></path>
<path d="M2.857 24c0-0.631 0.512-1.143 1.143-1.143h18.667c0.631 0 1.143 0.512 1.143 1.143s-0.512 1.143-1.143 1.143h-18.667c-0.631 0-1.143-0.512-1.143-1.143z"></path>
</symbol><svg aria-hidden="true" style="position: absolute; width: 0; height: 0; overflow: hidden;" version="1.1" xmlns="http://www.w3.org/2000/svg" xmlns:xlink="http://www.w3.org/1999/xlink">
<defs><symbol id="dump" viewBox="0 0 32 32">
<path d="M10 2.8c0 0.884 0.716 1.6 1.6 1.6h8.8c0.884 0 1.6-0.716 1.6-1.6s-0.716-1.6-1.6-1.6h-8.8c-0.884 0-1.6 0.716-1.6 1.6zM5.721 5.6c0.009-0 0.019-0 0.028 0h20.502c0.009-0 0.019-0 0.028 0h2.921c0.884 0 1.6 0.716 1.6 1.6s-0.716 1.6-1.6 1.6h-1.436l-0.933 13.997c-0.074 1.104-0.135 2.026-0.245 2.777-0.115 0.785-0.3 1.513-0.688 2.196-0.6 1.053-1.506 1.9-2.597 2.429-0.706 0.342-1.445 0.478-2.236 0.541-0.757 0.060-1.681 0.060-2.787 0.060h-4.553c-1.107 0-2.030 0-2.787-0.060-0.791-0.063-1.53-0.198-2.236-0.541-1.091-0.529-1.997-1.376-2.597-2.429-0.389-0.682-0.573-1.41-0.688-2.196-0.11-0.752-0.172-1.673-0.245-2.777l-0.933-13.997h-1.436c-0.884 0-1.6-0.716-1.6-1.6s0.716-1.6 1.6-1.6h2.921zM24.556 8.8h-17.113l0.915 13.722c0.079 1.183 0.133 1.977 0.223 2.588 0.087 0.592 0.191 0.881 0.303 1.076 0.28 0.492 0.703 0.887 1.212 1.134 0.203 0.098 0.498 0.183 1.094 0.23 0.616 0.049 1.411 0.050 2.597 0.050h4.427c1.185 0 1.981-0.001 2.597-0.050 0.596-0.047 0.892-0.132 1.094-0.23 0.509-0.247 0.932-0.642 1.212-1.134 0.111-0.196 0.216-0.485 0.303-1.076 0.090-0.611 0.144-1.405 0.223-2.588l0.915-13.722zM13.067 12.2c-0.884 0-1.6 0.716-1.6 1.6v7.333c0 0.884 0.716 1.6 1.6 1.6s1.6-0.716 1.6-1.6v-7.333c0-0.884-0.716-1.6-1.6-1.6zM18.933 12.2c-0.884 0-1.6 0.716-1.6 1.6v7.333c0 0.884 0.716 1.6 1.6 1.6s1.6-0.716 1.6-1.6v-7.333c0-0.884-0.716-1.6-1.6-1.6z"></path>
</symbol>
</defs>
</svg>
</defs>
</svg>
